<?xml version="1.0" encoding="UTF-8"?>
<svg width="30px" height="30px" viewBox="0 0 30 30" version="1.1" xmlns="http://www.w3.org/2000/svg" xmlns:xlink="http://www.w3.org/1999/xlink">
    <!-- Generator: Sketch 52.6 (67491) - http://www.bohemiancoding.com/sketch -->
    <title>Icons / Social / Facebook Round</title>
    <desc>Created with Sketch.</desc>
    <g id="Icons-/-Social-/-Facebook-Round" stroke="none" stroke-width="1" fill="none" fill-rule="evenodd">
        <path d="M15,30 C6.71572875,30 0,23.2842712 0,15 C0,6.71572875 6.71572875,0 15,0 C23.2842712,0 30,6.71572875 30,15 C30,23.2842712 23.2842712,30 15,30 Z M12.696347,24.0140938 L16.2648764,24.0140938 L16.2648764,15.5949646 L18.671754,15.5949646 L18.9844834,12.5638264 L16.2648764,12.5638264 L16.2648764,10.7788129 C16.2648764,10.1102191 16.7085087,9.95385445 17.0209385,9.95385445 L18.9389519,9.95385445 L18.9389519,7.00988512 L16.2975272,7 C13.3643417,7 12.696347,9.19449728 12.696347,10.5996825 L12.696347,12.5638264 L11,12.5638264 L11,15.5949646 L12.696347,15.5949646 L12.696347,24.0140938 Z" id="Combined-Shape" fill="currentColor"></path>
    </g>
</svg>
