<?xml version="1.0" encoding="UTF-8"?>
<svg width="30px" height="30px" viewBox="0 0 30 30" version="1.1" xmlns="http://www.w3.org/2000/svg" xmlns:xlink="http://www.w3.org/1999/xlink">
    <!-- Generator: Sketch 52.6 (67491) - http://www.bohemiancoding.com/sketch -->
    <title>Icons / Social / Generic Round</title>
    <desc>Created with Sketch.</desc>
    <g id="Icons-/-Social-/-Generic-Round" stroke="none" stroke-width="1" fill="none" fill-rule="evenodd">
        <path d="M15,30 C6.71572875,30 0,23.2842712 0,15 C0,6.71572875 6.71572875,0 15,0 C23.2842712,0 30,6.71572875 30,15 C30,23.2842712 23.2842712,30 15,30 Z M21.71,9 L20.46,9.799 L22.171,12.709 C18.131,12.787 15.086,13.354 11.909,16.947 L12.869,17.999 C16.266,14.634 18.921,14.45 22.086,14.459 L20.437,17.428 L21.687,18.273 L24.807,13.485 L21.71,9 Z M17.622,19.64 L9.345,19.64 L9.345,10.47 L17.622,10.47 L17.622,12.29 C18.062,12.184 18.509,12.1 18.967,12.033 L18.967,9.11 L8,9.11 L8,21 L18.967,21 L18.967,15.558 C18.517,15.638 18.07,15.748 17.622,15.902 L17.622,19.64 Z" id="Combined-Shape" fill="currentColor"></path>
    </g>
</svg>
