<?xml version="1.0" encoding="UTF-8"?>
<svg width="30px" height="30px" viewBox="0 0 30 30" version="1.1" xmlns="http://www.w3.org/2000/svg" xmlns:xlink="http://www.w3.org/1999/xlink">
    <!-- Generator: Sketch 52.6 (67491) - http://www.bohemiancoding.com/sketch -->
    <title>Icons / Social / Instagram Round</title>
    <desc>Created with Sketch.</desc>
    <g id="Icons-/-Social-/-Instagram-Round" stroke="none" stroke-width="1" fill="none" fill-rule="evenodd">
        <path d="M15,30 C6.71572875,30 0,23.2842712 0,15 C0,6.71572875 6.71572875,0 15,0 C23.2842712,0 30,6.71572875 30,15 C30,23.2842712 23.2842712,30 15,30 Z M23.9451397,11.2895172 C23.9019519,10.3311825 23.7496271,9.67692358 23.527268,9.10495769 C23.2973218,8.51256444 22.9897542,8.01063519 22.4890085,7.51045686 C21.9888464,7.01027853 21.4869334,6.70270095 20.895143,6.47274732 C20.322612,6.24979735 19.6683743,6.0980513 18.7106543,6.0542784 C17.7505998,6.0105055 17.4441995,6 15,6 C12.5558005,6 12.2488165,6.0105055 11.2893457,6.0542784 C10.3310421,6.0980513 9.67680436,6.24979735 9.10485701,6.47274732 C8.5130666,6.70270095 8.01057,7.01027853 7.51040789,7.51045686 C7.01024577,8.01063519 6.70209455,8.51256444 6.47214837,9.10495769 C6.24978925,9.67692358 6.09804812,10.3311825 6.05427664,11.2895172 C6.01050516,12.2496028 6,12.5560131 6,15.0002918 C6,17.4445705 6.01050516,17.7509808 6.05427664,18.7110664 C6.09804812,19.6694011 6.24978925,20.3230764 6.47214837,20.895626 C6.70209455,21.4874356 7.01024577,21.9893648 7.51040789,22.4901268 C8.01057,22.9897215 8.5130666,23.2978827 9.10485701,23.5278363 C9.67680436,23.7502027 10.3310421,23.9025323 11.2893457,23.9463052 C12.2488165,23.9900781 12.5558005,24 15,24 C17.4441995,24 17.7505998,23.9900781 18.7106543,23.9463052 C19.6683743,23.9025323 20.322612,23.7502027 20.895143,23.5278363 C21.4869334,23.2978827 21.9888464,22.9897215 22.4890085,22.4901268 C22.9897542,21.9893648 23.2973218,21.4874356 23.527268,20.895626 C23.7496271,20.3230764 23.9019519,19.6694011 23.9451397,18.7110664 C23.9894948,17.7509808 24,17.4445705 24,15.0002918 C24,12.5560131 23.9894948,12.2496028 23.9451397,11.2895172 Z M22.325595,18.6369443 C22.2859088,19.5141532 22.1394203,19.990986 22.0156929,20.3084855 C21.8522794,20.7281217 21.6573504,21.0281119 21.3427793,21.3432768 C21.0276247,21.657858 20.7276441,21.8527934 20.3074379,22.0167958 C19.9905324,22.1393599 19.5142987,22.2858532 18.6365346,22.3261243 C17.6875689,22.3698972 17.4027625,22.3786518 15,22.3786518 C12.5966539,22.3786518 12.3118475,22.3698972 11.3628818,22.3261243 C10.4857013,22.2858532 10.008884,22.1393599 9.69197847,22.0167958 C9.27177226,21.8527934 8.97237533,21.657858 8.65722067,21.3432768 C8.34264963,21.0281119 8.14713702,20.7281217 7.98372349,20.3084855 C7.86057973,19.990986 7.71409117,19.5141532 7.67440503,18.6369443 C7.63063355,17.6879479 7.62129564,17.4031322 7.62129564,15.0002918 C7.62129564,12.5968678 7.63063355,12.3126358 7.67440503,11.3636393 C7.71409117,10.4858468 7.86057973,10.009014 7.98372349,9.69209818 C8.14713702,9.27246198 8.34264963,8.97188807 8.65722067,8.65730683 C8.97237533,8.34214195 9.27177226,8.14720664 9.69197847,7.98437145 C10.008884,7.86064006 10.4857013,7.71414675 11.3628818,7.67387568 C12.3118475,7.63068642 12.5966539,7.62134821 15,7.62134821 C17.4027625,7.62134821 17.6875689,7.63068642 18.6365346,7.67387568 C19.5142987,7.71414675 19.9905324,7.86064006 20.3074379,7.98437145 C20.7276441,8.14720664 21.0276247,8.34214195 21.3427793,8.65730683 C21.6573504,8.97188807 21.8522794,9.27246198 22.0156929,9.69209818 C22.1394203,10.009014 22.2859088,10.4858468 22.325595,11.3636393 C22.3693664,12.3126358 22.3781207,12.5968678 22.3781207,15.0002918 C22.3781207,17.4031322 22.3693664,17.6879479 22.325595,18.6369443 Z M14.9306543,10.6691093 C12.3779016,10.6691093 10.3089696,12.7381084 10.3089696,15.2909439 C10.3089696,17.8431957 12.3779016,19.9121948 14.9306543,19.9121948 C17.483407,19.9121948 19.552339,17.8431957 19.552339,15.2909439 C19.552339,12.7381084 17.483407,10.6691093 14.9306543,10.6691093 Z M14.9306543,18.2908466 C13.2737579,18.2908466 11.9308488,16.9473104 11.9308488,15.2909439 C11.9308488,13.6339937 13.2737579,12.2904575 14.9306543,12.2904575 C16.5875507,12.2904575 17.9304598,13.6339937 17.9304598,15.2909439 C17.9304598,16.9473104 16.5875507,18.2908466 14.9306543,18.2908466 Z M19.9193308,8.91819331 C19.323455,8.91819331 18.8396343,9.40202977 18.8396343,9.99850848 C18.8396343,10.5949872 19.323455,11.07824 19.9193308,11.07824 C20.5157902,11.07824 20.9996109,10.5949872 20.9996109,9.99850848 C20.9996109,9.40202977 20.5157902,8.91819331 19.9193308,8.91819331 Z" id="Combined-Shape" fill="currentColor"></path>
    </g>
</svg>
