<?xml version="1.0" encoding="UTF-8"?>
<svg width="30px" height="30px" viewBox="0 0 30 30" version="1.1" xmlns="http://www.w3.org/2000/svg" xmlns:xlink="http://www.w3.org/1999/xlink">
    <!-- Generator: Sketch 52.6 (67491) - http://www.bohemiancoding.com/sketch -->
    <title>Icons / Social / Messenger Round</title>
    <desc>Created with Sketch.</desc>
    <g id="Icons-/-Social-/-Messenger-Round" stroke="none" stroke-width="1" fill="none" fill-rule="evenodd">
        <path d="M15,30 C6.71572875,30 0,23.2842712 0,15 C0,6.71572875 6.71572875,0 15,0 C23.2842712,0 30,6.71572875 30,15 C30,23.2842712 23.2842712,30 15,30 Z M15,6 C10.0294286,6 6,9.73094099 6,14.3333333 C6,16.9393939 7.2920625,19.2664274 9.31513393,20.7942584 L9.31513393,24 L12.3356786,22.2958533 C13.1775804,22.5366826 14.0726786,22.6666667 15,22.6666667 C19.9708929,22.6666667 24,18.9354067 24,14.3333333 C24,9.73094099 19.9708929,6 15,6 Z M14.0389286,12.0508692 L9.18527679,17.1507097 L13.6025089,14.7456061 L15.9104464,17.1507097 L20.7366964,12.0508692 L16.3684821,14.4138676 L14.0389286,12.0508692 Z" id="Combined-Shape" fill="currentColor"></path>
    </g>
</svg>
