<?xml version="1.0" encoding="UTF-8"?>
<svg width="30px" height="30px" viewBox="0 0 30 30" version="1.1" xmlns="http://www.w3.org/2000/svg" xmlns:xlink="http://www.w3.org/1999/xlink">
    <!-- Generator: Sketch 52.6 (67491) - http://www.bohemiancoding.com/sketch -->
    <title>Icons / Social / SMS Round</title>
    <desc>Created with Sketch.</desc>
    <g id="Icons-/-Social-/-SMS-Round" stroke="none" stroke-width="1" fill="none" fill-rule="evenodd">
        <path d="M15,30 C6.71572875,30 0,23.2842712 0,15 C0,6.71572875 6.71572875,0 15,0 C23.2842712,0 30,6.71572875 30,15 C30,23.2842712 23.2842712,30 15,30 Z M15.0375586,6 C10.0976167,6 6.0770946,10.0009932 6.07511782,14.9188049 C6.07447321,16.4908726 6.48714849,18.0253044 7.27145929,19.3780149 C7.98578265,21.0655395 7.56196289,22.6062012 6,24 C7.68808594,24 9.27177693,23.5865471 10.751073,22.7596412 C12.0601341,23.4702323 13.533999,23.8447948 15.0339918,23.845308 C19.9771137,23.845308 23.9980226,19.8438871 23.9999993,14.9259471 C24.0009018,12.542698 23.0695354,10.3016953 21.3774507,8.61577903 C19.685366,6.92982002 17.4350975,6.0009409 15.0375586,6 Z M11.6844,14.028 L10.5972,14.1792 C10.59,13.4016 10.4028,13.2648 10.1076,13.2648 C9.798,13.2648 9.6972,13.4592 9.6972,13.668 C9.6972,14.0568 10.0212,14.2656 10.41,14.4672 C11.0004,14.7768 11.7492,15.108 11.7492,16.152 C11.7492,17.2824 11.0364,17.7864 10.1724,17.7864 C9.078,17.7864 8.5956,17.2392 8.538,16.0656 L9.6972,15.9432 C9.7188,16.6488 9.8916,16.872 10.2012,16.872 C10.4748,16.872 10.6188,16.7352 10.6188,16.3824 C10.6188,15.936 10.266,15.7344 9.8484,15.5256 C9.2724,15.2232 8.5812,14.9064 8.5812,13.884 C8.5812,12.8616 9.2724,12.3216 10.1868,12.3216 C11.1444,12.3216 11.6844,12.8472 11.6844,14.028 Z M15.504,17.7 L14.5104,17.7 L13.8192,13.9344 L13.8048,13.9344 L13.8048,17.7 L12.7248,17.7 L12.7248,12.4152 L14.3736,12.4152 L15.0072,16.3464 L15.0288,16.3464 L15.6264,12.4152 L17.2752,12.4152 L17.2752,17.7 L16.2024,17.7 L16.2024,13.92 L16.1736,13.92 L15.504,17.7 Z M21.3684,14.028 L20.2812,14.1792 C20.274,13.4016 20.0868,13.2648 19.7916,13.2648 C19.482,13.2648 19.3812,13.4592 19.3812,13.668 C19.3812,14.0568 19.7052,14.2656 20.094,14.4672 C20.6844,14.7768 21.4332,15.108 21.4332,16.152 C21.4332,17.2824 20.7204,17.7864 19.8564,17.7864 C18.762,17.7864 18.2796,17.2392 18.222,16.0656 L19.3812,15.9432 C19.4028,16.6488 19.5756,16.872 19.8852,16.872 C20.1588,16.872 20.3028,16.7352 20.3028,16.3824 C20.3028,15.936 19.95,15.7344 19.5324,15.5256 C18.9564,15.2232 18.2652,14.9064 18.2652,13.884 C18.2652,12.8616 18.9564,12.3216 19.8708,12.3216 C20.8284,12.3216 21.3684,12.8472 21.3684,14.028 Z" id="Combined-Shape" fill="currentColor"></path>
    </g>
</svg>
