<?xml version="1.0" encoding="UTF-8"?>
<svg width="30px" height="30px" viewBox="0 0 30 30" version="1.1" xmlns="http://www.w3.org/2000/svg" xmlns:xlink="http://www.w3.org/1999/xlink">
    <!-- Generator: Sketch 52.6 (67491) - http://www.bohemiancoding.com/sketch -->
    <title>Icons / Social / Twitter Round</title>
    <desc>Created with Sketch.</desc>
    <g id="Icons-/-Social-/-Twitter-Round" stroke="none" stroke-width="1" fill="none" fill-rule="evenodd">
        <path d="M15,30 C6.71572875,30 0,23.2842712 0,15 C0,6.71572875 6.71572875,0 15,0 C23.2842712,0 30,6.71572875 30,15 C30,23.2842712 23.2842712,30 15,30 Z M6,21.2985783 C7.63439804,22.3730619 9.57558812,23 11.6610435,23 C18.4535652,23 22.1683055,17.2298473 22.1683055,12.2255779 C22.1683055,12.0615403 22.1646532,11.8978772 22.1573486,11.7357123 C22.8790403,11.2020284 23.5050422,10.5350172 23.999927,9.77550073 C23.3377675,10.0766108 22.6259369,10.280347 21.8794096,10.3717286 C22.6412765,9.90283583 23.2271032,9.16092161 23.5028508,8.27669168 C22.7891941,8.71075457 21.9992046,9.02572169 21.1577179,9.1957515 C20.4838711,8.45982952 19.5240503,7.9999251 18.4619655,7.9999251 C16.4228942,7.9999251 14.7695042,9.69535452 14.7695042,11.7866463 C14.7695042,12.0836367 14.8020096,12.3723878 14.8648289,12.6495289 C11.7958129,12.4914835 9.07449446,10.9840606 7.2534646,8.69315237 C6.93571571,9.25230327 6.75346663,9.90283583 6.75346663,10.5968121 C6.75346663,11.9106108 7.4053997,13.0693602 8.39626493,13.7487304 C7.79071589,13.7288811 7.22132448,13.5584768 6.72315265,13.2749689 C6.72278742,13.2906985 6.72278742,13.3068027 6.72278742,13.3225323 C6.72278742,15.1576558 7.9963396,16.6875496 9.68552193,17.0358486 C9.37544284,17.1223615 9.04965892,17.1688014 8.71255291,17.1688014 C8.47442385,17.1688014 8.24359937,17.1448324 8.01752286,17.1006397 C8.48793731,18.605441 9.85170095,19.6997738 11.4674723,19.730484 C10.2037813,20.7461687 8.61101935,21.3517595 6.88093141,21.3517595 C6.58327009,21.3517595 6.28889583,21.3337828 6,21.2985783 Z" id="Combined-Shape" fill="currentColor"></path>
    </g>
</svg>
