<?xml version="1.0" encoding="UTF-8"?>
<svg width="30px" height="30px" viewBox="0 0 30 30" version="1.1" xmlns="http://www.w3.org/2000/svg" xmlns:xlink="http://www.w3.org/1999/xlink">
    <!-- Generator: Sketch 52.6 (67491) - http://www.bohemiancoding.com/sketch -->
    <title>Icons / Social / WhatsApp Round</title>
    <desc>Created with Sketch.</desc>
    <g id="Icons-/-Social-/-WhatsApp-Round" stroke="none" stroke-width="1" fill="none" fill-rule="evenodd">
        <path d="M15,30 C6.71572875,30 0,23.2842712 0,15 C0,6.71572875 6.71572875,0 15,0 C23.2842712,0 30,6.71572875 30,15 C30,23.2842712 23.2842712,30 15,30 Z M21.3774507,8.61577903 C19.685366,6.92982002 17.4350975,6.0009409 15.0375586,6 C10.0976167,6 6.0770946,10.0009932 6.07511782,14.9188049 C6.07447321,16.4908726 6.48714849,18.0253044 7.27145929,19.3780149 L6,24 L10.751073,22.7596412 C12.0601341,23.4702323 13.533999,23.8447948 15.0339918,23.845308 L15.0376445,23.845308 L15.0376875,23.845308 C19.9771137,23.845308 23.9980226,19.8438871 23.9999993,14.9259471 C24.0009018,12.542698 23.0695354,10.3016953 21.3774507,8.61577903 Z M15.0376445,22.338932 L15.0346364,22.338932 C13.6979862,22.3384188 12.3869482,21.981049 11.2432064,21.3055705 L10.9712266,21.144891 L8.15185901,21.880929 L8.90436935,19.1452284 L8.72727523,18.8647556 C7.98159769,17.6844004 7.58778781,16.3202281 7.58834646,14.9194036 C7.58997946,10.8318907 10.9316909,7.50641877 15.0406097,7.50641877 C17.0302864,7.50710306 18.9006255,8.27928007 20.3070648,9.68057499 C21.7134611,11.0818271 22.4875442,12.9445037 22.4868137,14.9253484 C22.4851377,19.0132034 19.1434262,22.338932 15.0376445,22.338932 Z M19.1236584,16.7865708 C18.8997231,16.6750745 17.7987829,16.1359406 17.5934982,16.0615242 C17.3882134,15.9871506 17.2389232,15.9499851 17.0896329,16.1730205 C16.9403427,16.3961414 16.5112086,16.8981527 16.3805259,17.0469427 C16.2499292,17.1956044 16.1192895,17.214294 15.8953972,17.1027122 C15.6714189,16.9911304 14.9498495,16.7558206 14.0945034,15.996474 C13.4287567,15.405548 12.979339,14.6757541 12.8486993,14.4525904 C12.7181026,14.2295123 12.8348189,14.1089064 12.9469369,13.9977523 C13.047667,13.8978889 13.1708722,13.7374232 13.2828184,13.6073228 C13.3948076,13.4771797 13.4321086,13.3841592 13.5067537,13.2355402 C13.5813988,13.0867502 13.5440978,12.9566071 13.4881032,12.845068 C13.4321086,12.733529 12.984238,11.6364859 12.7976467,11.1902014 C12.6158685,10.7557208 12.431254,10.8145696 12.2937815,10.8076412 C12.1633137,10.8011832 12.0138516,10.7998147 11.8646044,10.7998147 C11.7153141,10.7998147 11.4726853,10.8555842 11.2674435,11.0786623 C11.0621587,11.301826 10.4836484,11.8410027 10.4836484,12.9379602 C10.4836484,14.0349605 11.286094,15.0946671 11.3980832,15.2434143 C11.5100294,15.3922043 12.9771474,17.6432575 15.2235912,18.6086605 C15.7578817,18.8382822 16.1750262,18.9754393 16.5002073,19.0780826 C17.0366895,19.2477862 17.5248693,19.2238361 17.9106861,19.1664413 C18.3409376,19.1024604 19.2356046,18.6273074 19.4222388,18.1067348 C19.6088301,17.5860766 19.6088301,17.1398776 19.5528355,17.0469427 C19.4968839,16.953965 19.3475937,16.8981527 19.1236584,16.7865708 Z" id="Combined-Shape" fill="currentColor"></path>
    </g>
</svg>
