<?xml version="1.0" encoding="UTF-8" standalone="no"?>
<svg width="55px" height="68px" viewBox="0 0 55 68" version="1.1"
  xmlns="http://www.w3.org/2000/svg"
  xmlns:xlink="http://www.w3.org/1999/xlink">
  <!-- Generator: Sketch 48.2 (47327) - http://www.bohemiancoding.com/sketch -->
  <title>z</title>
  <desc>Created with Sketch.</desc>
  <defs></defs>
  <g id="Page-1" stroke="none" stroke-width="1" fill="none" fill-rule="evenodd">
    <path d="M18.442,0.351 C14.114,0.351 9.982,0 9.982,0 C9.982,0 3.262,15.356 2.652,16.688 C2.223,17.624 3.185,18.082 3.783,17.078 C5.616,13.998 13.647,3.938 29.712,3.938 L37.9,3.938 L0,67.136 L46.165,67.136 C46.165,67.136 53.573,50.922 53.924,50.103 C54.275,49.284 53.458,49.048 53.066,49.791 C51.156,53.417 40.2,63.633 25.929,63.633 L16.22,63.633 L54.587,0.351 L18.442,0.351 Z M9.975,63.194 C9.82150852,63.4405999 9.56363511,63.6034285 9.275,63.636 L8.762,63.636 C8.523,63.636 8.45,63.436 8.598,63.194 L44.192,4.384 C44.3452754,4.13718558 44.6032641,3.97428419 44.892,3.942 L45.4,3.942 C45.64,3.942 45.713,4.142 45.564,4.384 L9.975,63.194 Z" id="Shape" fill="#fff" fill-rule="nonzero"></path>
  </g>
</svg>
