<?xml version="1.0" encoding="UTF-8"?>
<svg width="36px" height="36px" viewBox="0 0 36 36" version="1.1" xmlns="http://www.w3.org/2000/svg" xmlns:xlink="http://www.w3.org/1999/xlink">
    <!-- Generator: Sketch 60 (88103) - https://sketch.com -->
    <title>zoom-in-icon</title>
    <desc>Created with Sketch.</desc>
    <g id="zoom-in-icon" stroke="none" stroke-width="1" fill="none" fill-rule="evenodd">
        <path d="M19.2746684,18 L23.7360075,22.4613403 C24.0879975,22.81333 24.0879975,23.3840175 23.7360075,23.7360072 C23.3840176,24.0879987 22.8133291,24.0879987 22.4613391,23.7360072 L18,19.2746694 L13.5386609,23.7360072 C13.1866709,24.0879987 12.6159824,24.0879987 12.2639925,23.7360072 C11.9120025,23.3840175 11.9120025,22.81333 12.2639925,22.4613403 L16.7253316,18 L12.2639925,13.538661 C11.9120025,13.1866713 11.9120025,12.6159837 12.2639925,12.2639923 C12.6159824,11.9120026 13.1866709,11.9120026 13.5386609,12.2639923 L18,16.7253319 L22.4613391,12.2639923 C22.8133291,11.9120026 23.3840176,11.9120026 23.7360075,12.2639923 C24.0879975,12.6159837 24.0879975,13.1866713 23.7360075,13.538661 L19.2746684,18 Z" id="info-close-black-path-copy-2" fill="#44444C" fill-rule="nonzero" transform="translate(18.000000, 18.000000) rotate(-315.000000) translate(-18.000000, -18.000000) "></path>
    </g>
</svg>