<?xml version="1.0" encoding="UTF-8"?>
<svg width="16px" height="16px" viewBox="0 0 16 16" version="1.1" xmlns="http://www.w3.org/2000/svg" xmlns:xlink="http://www.w3.org/1999/xlink">
    <title>16 / augmented-realiy</title>
    <g id="16-/-augmented-realiy" stroke="none" stroke-width="1" fill="none" fill-rule="evenodd">
        <path d="M8.57894737,7.41052632 L8.57894737,9.68421053 C8.57894737,9.93684211 8.41052632,10.1052632 8.15789474,10.1052632 C7.90526316,10.1052632 7.73684211,9.93684211 7.73684211,9.68421053 L7.73684211,7.41052632 L5.46315789,6.23157895 C5.21052632,6.14736842 5.12631579,5.89473684 5.29473684,5.72631579 C5.37894737,5.55789474 5.63157895,5.47368421 5.88421053,5.55789474 L8.24210526,6.73684211 L10.6,5.55789474 C10.7684211,5.47368421 11.0210526,5.55789474 11.1894737,5.72631579 C11.3578947,5.89473684 11.1894737,6.14736842 11.0210526,6.31578947 L8.57894737,7.41052632 Z M8.32631579,15.9166316 C8.32631579,16 8.24210526,16 8.15789474,16 C8.07368421,16 7.98947368,16 7.98947368,15.9166316 L5.46315789,14.6534737 C5.21052632,14.5684211 5.12631579,14.3157895 5.29473684,14.1473684 C5.37894737,13.9789474 5.63157895,13.8947368 5.88421053,13.9789474 L7.73684211,14.9052632 L7.73684211,12.6315789 C7.73684211,12.3789474 7.90526316,12.2105263 8.15789474,12.2105263 C8.41052632,12.2105263 8.57894737,12.3789474 8.57894737,12.6315789 L8.57894737,14.9052632 L10.5157895,13.9789474 C10.6842105,13.8947368 10.9368421,13.9789474 11.1052632,14.1473684 C11.1894737,14.3157895 11.1052632,14.5684211 10.9368421,14.7368421 L8.32631579,15.9166316 Z M7.98947368,0.0842105263 C7.98947368,0 8.07368421,0 8.15789474,0 C8.24210526,0 8.32631579,0 8.32631579,0.0842105263 L10.8526316,1.34736842 C11.1052632,1.43157895 11.1894737,1.68421053 11.0210526,1.85263158 C10.8526316,2.02105263 10.6842105,2.10526316 10.4315789,2.02105263 L8.57894737,1.09473684 L8.57894737,3.36842105 C8.57894737,3.62105263 8.41052632,3.78947368 8.15789474,3.78947368 C7.90526316,3.78947368 7.73684211,3.62105263 7.73684211,3.36842105 L7.73684211,1.09473684 L5.8,2.02105263 C5.63157895,2.10526316 5.37894737,2.02105263 5.21052632,1.85263158 C5.12631579,1.68421053 5.21052632,1.43157895 5.46315789,1.34736842 L7.98947368,0.0842105263 Z M1.84210526,4.46315789 L1.84210526,6.73684211 C1.84210526,6.98947368 1.67368421,7.15789474 1.42105263,7.15789474 C1.16842105,7.15789474 1,6.98947368 1,6.73684211 L1,3.78947368 L1,3.62105263 C1,3.53684211 1.08421053,3.53684211 1.08421053,3.53684211 L1.16842105,3.45263158 L3.69473684,2.18947368 C3.86315789,2.10526316 4.11578947,2.18947368 4.28421053,2.35789474 C4.45263158,2.52631579 4.28421053,2.77894737 4.11578947,2.94736842 L2.34736842,3.78947368 L4.11578947,4.71578947 C4.36842105,4.8 4.45263158,5.05263158 4.28421053,5.22105263 C4.2,5.47368421 3.94736842,5.55789474 3.77894737,5.38947368 L1.84210526,4.46315789 Z M2.34736842,12.2105263 L4.11578947,13.1368421 C4.36842105,13.2210526 4.45263158,13.4736842 4.28421053,13.6421053 C4.11578947,13.8113684 3.94736842,13.8947368 3.69473684,13.8113684 L1.16842105,12.5482105 C1.08421053,12.5482105 1,12.4631579 1,12.3789474 L1,12.2105263 L1,9.26315789 C1,9.01052632 1.16842105,8.84210526 1.42105263,8.84210526 C1.67368421,8.84210526 1.84210526,9.01052632 1.84210526,9.26315789 L1.84210526,11.5368421 L3.77894737,10.6105263 C3.94736842,10.5263158 4.2,10.6105263 4.36842105,10.7789474 C4.53684211,10.9473684 4.36842105,11.2 4.2,11.3684211 L2.34736842,12.2105263 Z M15.3157895,12.2105263 L15.3157895,12.3789474 C15.3157895,12.4631579 15.2315789,12.4631579 15.2315789,12.4631579 L15.1473684,12.5482105 L12.6210526,13.8113684 C12.4526316,13.8947368 12.2,13.8113684 12.0315789,13.6421053 C11.9473684,13.4736842 12.0315789,13.2210526 12.2,13.0526316 L13.9684211,12.1271579 L12.2,11.2 C12.0315789,11.1157895 11.9473684,10.864 12.0315789,10.6105263 C12.1157895,10.3578947 12.3684211,10.3578947 12.6210526,10.4429474 L14.5578947,11.3684211 L14.5578947,9.26315789 C14.5578947,9.01052632 14.7263158,8.84210526 14.9789474,8.84210526 C15.2315789,8.84210526 15.3157895,9.01052632 15.3157895,9.26315789 L15.3157895,12.2105263 Z M15.0631579,3.45263158 C15.1473684,3.45263158 15.2315789,3.53684211 15.2315789,3.62105263 L15.2315789,3.78947368 L15.2315789,6.73684211 C15.2315789,6.98947368 15.0631579,7.15789474 14.8105263,7.15789474 C14.5578947,7.15789474 14.4736842,6.98947368 14.4736842,6.73684211 L14.4736842,4.46315789 L12.5368421,5.38947368 C12.3684211,5.47368421 12.1157895,5.38947368 11.9473684,5.22105263 C11.7789474,5.05263158 11.9473684,4.8 12.1157895,4.63157895 L13.8842105,3.70526316 L12.1157895,2.77894737 C11.9473684,2.77894737 11.8631579,2.52631579 12.0315789,2.35789474 C12.2,2.18947368 12.3684211,2.10526316 12.6210526,2.18947368 L15.0631579,3.45263158 Z" id="icon-augmentedreality" fill="#252525"></path>
    </g>
</svg>