<?xml version="1.0" encoding="UTF-8"?>
<svg width="16px" height="16px" viewBox="0 0 16 16" version="1.1" xmlns="http://www.w3.org/2000/svg" xmlns:xlink="http://www.w3.org/1999/xlink">
    <title>16 / cards</title>
    <g id="16-/-cards" stroke="none" stroke-width="1" fill="none" fill-rule="evenodd">
        <path d="M15.2246582,3.811 L11.9076582,3.053 L11.9076582,1.997 C11.9076582,1.447 11.4606582,1 10.9106582,1 L5.64965816,1 C5.09965816,1 4.65265816,1.447 4.65265816,1.997 L4.65265816,2.879 L0.756658159,3.847 C0.223658159,3.979 -0.103341841,4.522 0.0296581589,5.054 L2.17965816,13.702 C2.28965816,14.147 2.68865816,14.458 3.14765816,14.458 C3.22865816,14.458 3.30865816,14.448 3.38765816,14.429 L7.86965816,13.316 L12.7956582,14.441 C12.8686582,14.459 12.9426582,14.466 13.0176582,14.466 C13.4786582,14.466 13.8876582,14.14 13.9896582,13.692 L15.9746582,5.004 C16.0966582,4.468 15.7596582,3.934 15.2246582,3.811 Z M8.26965816,12.263 L7.86665816,12.363 L7.39665816,12.48 L6.94065816,12.593 L3.16365816,13.533 C3.12765816,13.541 3.08765816,13.522 3.07665816,13.48 L0.927658159,4.832 C0.917658159,4.794 0.942658159,4.754 0.979658159,4.745 L4.65265816,3.833 L5.11465816,3.719 L5.57665816,3.605 L6.10265816,3.473 C6.13065816,3.473 6.16465816,3.493 6.17265816,3.528 L8.02565816,10.98 L8.07265816,11.169 L8.13965816,11.441 L8.25365816,11.903 L8.32165816,12.175 C8.33265816,12.213 8.30665816,12.254 8.26965816,12.263 Z M8.52865816,9.171 L7.07065816,3.305 C6.94065816,2.781 6.38865816,2.45 5.86265816,2.578 L5.57665816,2.648 L5.57665816,1.997 C5.57665816,1.958 5.60965816,1.925 5.64865816,1.925 L10.9096582,1.925 C10.9476582,1.925 10.9806582,1.958 10.9806582,1.997 L10.9806582,10.908 C10.9806582,10.945 10.9476582,10.98 10.9096582,10.98 L8.97765816,10.98 L8.52865816,9.171 Z M13.0876582,13.486 C13.0786582,13.523 13.0446582,13.542 13.0176582,13.542 L9.13065816,12.655 C9.23965816,12.446 9.28065816,12.199 9.22065816,11.953 L9.20665816,11.904 L10.9106582,11.904 C11.4606582,11.904 11.9076582,11.457 11.9076582,10.908 L11.9076582,4.002 L15.0186582,4.713 C15.0556582,4.722 15.0806582,4.762 15.0726582,4.799 L13.0876582,13.486 Z" id="cards" fill="#252525"></path>
    </g>
</svg>