<svg width="816" height="816" viewBox="0 0 816 816" fill="none" xmlns="http://www.w3.org/2000/svg">
<path d="M325.278 0.266602C314.12 0.266602 305.078 9.28737 305.078 20.4172V161.484C305.078 172.614 314.121 181.635 325.278 181.635C336.436 181.635 345.478 172.614 345.478 161.484V20.4172C345.478 9.28697 336.435 0.266602 325.278 0.266602ZM151.359 90.6359C146.195 91.1411 141.428 93.5995 138.034 97.5162C134.64 101.428 132.886 106.495 133.137 111.662C133.382 116.828 135.612 121.703 139.366 125.276L199.973 185.735C203.753 189.62 208.943 191.823 214.372 191.849C219.802 191.875 225.013 189.719 228.834 185.865C232.651 182.016 234.755 176.792 234.666 171.376C234.583 165.959 232.317 160.808 228.375 157.078L167.768 96.6197H167.773C163.491 92.2447 157.456 90.0474 151.359 90.6359ZM488.478 100.402C487.632 100.454 486.787 100.558 485.951 100.714C481.503 101.355 477.394 103.459 474.277 106.698L413.669 167.157V167.152C409.738 170.886 407.472 176.037 407.388 181.449C407.31 186.866 409.409 192.085 413.226 195.933C417.042 199.782 422.253 201.938 427.677 201.912C433.107 201.892 438.292 199.688 442.076 195.808L502.684 135.35C506.73 131.62 509.074 126.407 509.173 120.912C509.273 115.423 507.122 110.126 503.211 106.251C499.306 102.381 493.986 100.266 488.478 100.402ZM277.307 215.011V215.016C270.807 215.292 264.834 218.678 261.268 224.11C257.697 229.537 256.971 236.355 259.315 242.413L437.98 705.599C439.865 710.407 443.519 714.308 448.198 716.506C452.881 718.698 458.227 719.021 463.135 717.401C468.049 715.787 472.147 712.349 474.596 707.802L531.731 602L649.472 719.765L649.467 719.77C653.263 723.593 658.437 725.75 663.83 725.75C669.229 725.75 674.398 723.593 678.194 719.77L763.737 634.125V634.12C767.475 630.349 769.574 625.26 769.574 619.953C769.574 614.646 767.475 609.557 763.737 605.781L646.313 488.333L752.056 431.026C756.598 428.547 760.013 424.422 761.595 419.506C763.182 414.589 762.811 409.256 760.566 404.599C758.321 399.948 754.369 396.328 749.529 394.5L285.512 216.273C282.896 215.289 280.097 214.862 277.304 215.013L277.307 215.011ZM62.6611 262.246C51.5035 262.246 42.4609 271.266 42.4609 282.396C42.4609 293.527 51.5039 302.547 62.6611 302.547H204.074C215.232 302.547 224.275 293.526 224.275 282.396C224.275 271.266 215.232 262.246 204.074 262.246H62.6611ZM313.289 270.115L694.289 416.542L603.066 465.662V465.667C597.395 468.672 593.495 474.193 592.561 480.531C591.626 486.87 593.767 493.276 598.33 497.786L721.12 619.958L663.986 676.953L541.195 554.781L541.201 554.775C536.721 550.328 530.419 548.223 524.159 549.088C517.904 549.952 512.411 553.687 509.32 559.187L459.761 650.187L313.295 270.12L313.289 270.115ZM224.278 362.381C223.427 362.433 222.587 362.537 221.751 362.693C217.298 363.334 213.189 365.443 210.072 368.678L149.465 429.136C145.528 432.86 143.257 438.016 143.168 443.434C143.084 448.85 145.188 454.079 149.005 457.928C152.827 461.782 158.038 463.939 163.467 463.913C168.902 463.887 174.092 461.678 177.872 457.788L238.479 397.329C242.525 393.6 244.87 388.386 244.969 382.897C245.068 377.402 242.917 372.105 239.012 368.23C235.106 364.36 229.781 362.245 224.278 362.381Z" fill="#252525"/>
</svg>
