<?xml version="1.0" encoding="UTF-8"?>
<svg width="16px" height="16px" viewBox="0 0 16 16" version="1.1" xmlns="http://www.w3.org/2000/svg" xmlns:xlink="http://www.w3.org/1999/xlink">
    <title>16 / close</title>
    <g id="16-/-close" stroke="none" stroke-width="1" fill="none" fill-rule="evenodd">
        <path d="M3.69705627,2.56568542 L8.222,7.091 L12.7480231,2.56568542 C13.0320407,2.28166776 13.476482,2.25584797 13.7896676,2.48822606 L13.8793939,2.56568542 C14.1918134,2.87810486 14.1918134,3.38463684 13.8793939,3.69705627 L13.8793939,3.69705627 L9.354,8.222 L13.8793939,12.7480231 C14.1918134,13.0604425 14.1918134,13.5669745 13.8793939,13.8793939 C13.5669745,14.1918134 13.0604425,14.1918134 12.7480231,13.8793939 L8.222,9.354 L3.69705627,13.8793939 C3.41303861,14.1634116 2.96859735,14.1892314 2.65541175,13.9568533 L2.56568542,13.8793939 C2.25326599,13.5669745 2.25326599,13.0604425 2.56568542,12.7480231 L2.56568542,12.7480231 L7.091,8.222 L2.56568542,3.69705627 C2.25326599,3.38463684 2.25326599,2.87810486 2.56568542,2.56568542 C2.87810486,2.25326599 3.38463684,2.25326599 3.69705627,2.56568542 Z" id="close-small" fill="#252525"></path>
    </g>
</svg>