<?xml version="1.0" encoding="UTF-8"?>
<svg width="16px" height="16px" viewBox="0 0 16 16" version="1.1" xmlns="http://www.w3.org/2000/svg" xmlns:xlink="http://www.w3.org/1999/xlink">
    <title>16 / cross-out</title>
    <g id="16-/-cross-out" stroke="none" stroke-width="1" fill="none" fill-rule="evenodd">
        <path d="M8.453,7.73726274 C9.721,6.28971029 11.23,4.68231768 12.999,3 C12.458,2.48651349 11.915,2 11.915,2 C11.915,2 9.78,3.64135864 7.153,6.3016983 C5.996,4.99400599 4.787,3.54045954 3.64,2 L2.415,2.96203796 C2.415,2.96203796 3.574,4.92207792 5.836,7.68431568 C4.551,9.07892108 3.217,10.6683317 2,12.4045954 L3.635,14 C3.635,14 4.818,12.0879121 7.166,9.24775225 C8.416,10.6663337 9.902,12.2117882 11.637,13.7782218 L12.986,12.2537463 C12.986,12.2537463 10.986,10.4665335 8.453,7.73726274" id="Fill-1" fill="#252525"></path>
    </g>
</svg>