<?xml version="1.0" encoding="UTF-8"?>
<svg width="16px" height="16px" viewBox="0 0 16 16" version="1.1" xmlns="http://www.w3.org/2000/svg" xmlns:xlink="http://www.w3.org/1999/xlink">
    <title>16 / eye</title>
    <g id="16-/-eye" stroke="none" stroke-width="1" fill="none" fill-rule="evenodd">
        <path d="M8.00037589,3 C11.262322,3 14.1604097,4.764 16,7.5 C14.1604097,10.236 11.2615703,12 8.00037589,12 C4.73918151,12 1.83959028,10.236 0,7.5 C1.83959028,4.764 4.73842973,3 8.00037589,3 Z M8,4 C6.06700338,4 4.5,5.56700338 4.5,7.5 C4.5,9.43299662 6.06700338,11 8,11 C9.93299662,11 11.5,9.43299662 11.5,7.5 C11.5,5.56700338 9.93299662,4 8,4 Z M8,6 C8.82842712,6 9.5,6.67157288 9.5,7.5 C9.5,8.32842712 8.82842712,9 8,9 C7.17157288,9 6.5,8.32842712 6.5,7.5 C6.5,6.67157288 7.17157288,6 8,6 Z" id="eye" fill="#252525"></path>
    </g>
</svg>