<?xml version="1.0" encoding="UTF-8"?>
<svg width="16px" height="16px" viewBox="0 0 16 16" version="1.1" xmlns="http://www.w3.org/2000/svg" xmlns:xlink="http://www.w3.org/1999/xlink">
    <title>16 / hyperlink</title>
    <g id="16-/-hyperlink" stroke="none" stroke-width="1" fill="none" fill-rule="evenodd">
        <path d="M6,5 L6,6 L4.5,6 C3.1,6 2,7.1 2,8.5 C2,9.9 3.1,11 4.5,11 L4.5,11 L6,11 L6,12 L4.5,12 C2.6,12 1,10.4 1,8.5 C1,6.6 2.6,5 4.5,5 L4.5,5 L6,5 Z M10.5,5 C12.4,5 14,6.6 14,8.5 C14,10.4 12.4,12 10.5,12 L10.5,12 L9,12 L9,11 L10.5,11 C11.9,11 13,9.9 13,8.5 C13,7.1 11.9,6 10.5,6 L10.5,6 L9,6 L9,5 Z M11,8 L11,9 L4,9 L4,8 L11,8 Z" id="Combined-Shape" fill="#252525"></path>
    </g>
</svg>