<?xml version="1.0" encoding="UTF-8"?>
<svg width="16px" height="16px" viewBox="0 0 16 16" version="1.1" xmlns="http://www.w3.org/2000/svg" xmlns:xlink="http://www.w3.org/1999/xlink">
    <title>16 / info-small</title>
    <g id="16-/-info-small" stroke="none" stroke-width="1" fill="none" fill-rule="evenodd">
        <path d="M9.0625,11.71875 C9.2063809,11.71875 9.3308914,11.771321 9.4360352,11.876465 C9.5411789,11.981609 9.59375,12.106119 9.59375,12.25 C9.59375,12.393881 9.5411789,12.518391 9.4360352,12.623535 C9.3308914,12.728679 9.2063809,12.78125 9.0625,12.78125 L6.9375,12.78125 C6.7936191,12.78125 6.6691086,12.728679 6.5639648,12.623535 C6.4588211,12.518391 6.40625,12.393881 6.40625,12.25 C6.40625,12.106119 6.4588211,11.981609 6.5639648,11.876465 C6.6691086,11.771321 6.7936191,11.71875 6.9375,11.71875 L7.46875,11.71875 L7.46875,7.46875 L6.9375,7.46875 C6.7936191,7.46875 6.6691086,7.416179 6.5639648,7.311035 C6.4588211,7.205891 6.40625,7.081381 6.40625,6.9375 C6.40625,6.793619 6.4588211,6.669109 6.5639648,6.563965 C6.6691086,6.458821 6.7936191,6.40625 6.9375,6.40625 L8,6.40625 C8.1438809,6.40625 8.2683914,6.458821 8.3735352,6.563965 C8.4786789,6.669109 8.53125,6.793619 8.53125,6.9375 L8.53125,11.71875 L9.0625,11.71875 Z" id="info-standard-black-path" fill="#252525"></path>
        <path d="M8,5.34375 C7.7011704,5.34375 7.4493825,5.241375 7.2446289,5.036621 C7.0398753,4.831867 6.9375,4.58008 6.9375,4.28125 C6.9375,3.98242 7.0398753,3.730633 7.2446289,3.525879 C7.4493825,3.321125 7.7011704,3.21875 8,3.21875 C8.2988296,3.21875 8.5506175,3.321125 8.7553711,3.525879 C8.9601247,3.730633 9.0625,3.98242 9.0625,4.28125 C9.0625,4.58008 8.9601247,4.831867 8.7553711,5.036621 C8.5506175,5.241375 8.2988296,5.34375 8,5.34375 Z" id="info-standard-black-path" fill="#252525"></path>
    </g>
</svg>