<?xml version="1.0" encoding="UTF-8"?>
<svg width="16px" height="16px" viewBox="0 0 16 16" version="1.1" xmlns="http://www.w3.org/2000/svg" xmlns:xlink="http://www.w3.org/1999/xlink">
    <g stroke="none" stroke-width="1" fill="none" fill-rule="evenodd">
        <path d="M8,0 C9.10417214,0 10.1432243,0.208331294 11.1171875,0.624999529 C12.0911507,1.04166871 12.9401005,1.61197553 13.6640625,2.33593788 C14.3880245,3.05989929 14.9583313,3.90884894 15.375,4.88281224 C15.7916687,5.85677553 16,6.89582776 16,8 C16,9.10417224 15.7916687,10.1432245 15.375,11.1171878 C14.9583313,12.0911511 14.3880245,12.9401007 13.6640625,13.6640621 C12.9401005,14.3880245 12.0911507,14.9583313 11.1171875,15.3750005 C10.1432243,15.7916687 9.10417214,16 8,16 C6.89582786,16 5.85677572,15.7916687 4.88281252,15.3750005 C3.90884932,14.9583313 3.05989948,14.3880245 2.33593751,13.6640621 C1.61197553,12.9401007 1.04166871,12.0911511 0.625,11.1171878 C0.208331294,10.1432245 0,9.10417224 0,8 C0,6.89582776 0.208331294,5.85677553 0.625,4.88281224 C1.04166871,3.90884894 1.61197553,3.05989929 2.33593751,2.33593788 C3.05989948,1.61197553 3.90884932,1.04166871 4.88281252,0.624999529 C5.85677572,0.208331294 6.89582786,0 8,0 Z M8,6.40625 L6.9375,6.40625 C6.7936191,6.40625 6.6691086,6.458821 6.5639648,6.563965 C6.4588211,6.669109 6.40625,6.793619 6.40625,6.9375 C6.40625,7.081381 6.4588211,7.205891 6.5639648,7.311035 C6.6691086,7.416179 6.7936191,7.46875 6.9375,7.46875 L6.9375,7.46875 L7.46875,7.46875 L7.46875,11.71875 L6.9375,11.71875 C6.7936191,11.71875 6.6691086,11.771321 6.5639648,11.876465 C6.4588211,11.981609 6.40625,12.106119 6.40625,12.25 C6.40625,12.393881 6.4588211,12.518391 6.5639648,12.623535 C6.6691086,12.728679 6.7936191,12.78125 6.9375,12.78125 L6.9375,12.78125 L9.0625,12.78125 C9.2063809,12.78125 9.3308914,12.728679 9.4360352,12.623535 C9.5411789,12.518391 9.59375,12.393881 9.59375,12.25 C9.59375,12.106119 9.5411789,11.981609 9.4360352,11.876465 C9.3308914,11.771321 9.2063809,11.71875 9.0625,11.71875 L9.0625,11.71875 L8.53125,11.71875 L8.53125,6.9375 C8.53125,6.793619 8.4786789,6.669109 8.3735352,6.563965 C8.2683914,6.458821 8.1438809,6.40625 8,6.40625 L8,6.40625 Z M8,3.21875 C7.7011704,3.21875 7.4493825,3.321125 7.2446289,3.525879 C7.0398753,3.730633 6.9375,3.98242 6.9375,4.28125 C6.9375,4.58008 7.0398753,4.831867 7.2446289,5.036621 C7.4493825,5.241375 7.7011704,5.34375 8,5.34375 C8.2988296,5.34375 8.5506175,5.241375 8.7553711,5.036621 C8.9601247,4.831867 9.0625,4.58008 9.0625,4.28125 C9.0625,3.98242 8.9601247,3.730633 8.7553711,3.525879 C8.5506175,3.321125 8.2988296,3.21875 8,3.21875 Z" id="info-standard-black" fill="#252525"></path>
    </g>
</svg>
