<?xml version="1.0" encoding="UTF-8"?>
<svg width="16px" height="16px" viewBox="0 0 16 16" version="1.1" xmlns="http://www.w3.org/2000/svg" xmlns:xlink="http://www.w3.org/1999/xlink">
    <title>16 / info</title>
    <g id="16-/-info" stroke="none" stroke-width="1" fill="none" fill-rule="evenodd">
        <path d="M9.88888889,13.4444444 C10.099538,13.4444444 10.2818279,13.5214111 10.435764,13.6753475 C10.5896998,13.8292838 10.6666667,14.0115729 10.6666667,14.2222222 C10.6666667,14.4328715 10.5896998,14.6151607 10.435764,14.769097 C10.2818279,14.9230333 10.099538,15 9.88888889,15 L6.77777778,15 C6.56712862,15 6.38483873,14.9230333 6.23090271,14.769097 C6.07696684,14.6151607 6,14.4328715 6,14.2222222 C6,14.0115729 6.07696684,13.8292838 6.23090271,13.6753475 C6.38483873,13.5214111 6.56712862,13.4444444 6.77777778,13.4444444 L7.55555556,13.4444444 L7.55555556,7.22222222 L6.77777778,7.22222222 C6.56712862,7.22222222 6.38483873,7.14525553 6.23090271,6.99131922 C6.07696684,6.8373829 6,6.65509375 6,6.44444444 C6,6.23379514 6.07696684,6.05150599 6.23090271,5.89756967 C6.38483873,5.74363336 6.56712862,5.66666667 6.77777778,5.66666667 L8.33333333,5.66666667 C8.54398249,5.66666667 8.72627238,5.74363336 8.8802084,5.89756967 C9.03414427,6.05150599 9.11111111,6.23379514 9.11111111,6.44444444 L9.11111111,13.4444444 L9.88888889,13.4444444 Z M8.33333333,4.11111111 C7.89583117,4.11111111 7.52720052,3.96122876 7.22743055,3.6614582 C6.92766057,3.36168763 6.77777778,2.9930583 6.77777778,2.55555556 C6.77777778,2.11805281 6.92766057,1.74942348 7.22743055,1.44965292 C7.52720052,1.14988235 7.89583117,1 8.33333333,1 C8.77083549,1 9.13946614,1.14988235 9.43923612,1.44965292 C9.7390061,1.74942348 9.88888889,2.11805281 9.88888889,2.55555556 C9.88888889,2.9930583 9.7390061,3.36168763 9.43923612,3.6614582 C9.13946614,3.96122876 8.77083549,4.11111111 8.33333333,4.11111111 Z" id="info-standard-black" fill="#252525"></path>
    </g>
</svg>