<?xml version="1.0" encoding="UTF-8"?>
<svg width="16px" height="16px" viewBox="0 0 16 16" version="1.1" xmlns="http://www.w3.org/2000/svg" xmlns:xlink="http://www.w3.org/1999/xlink">
    <title>16 / minus-circle-filled</title>
    <g id="16-/-minus-circle-filled" stroke="none" stroke-width="1" fill="none" fill-rule="evenodd">
        <path d="M8,0 C9.10417214,0 10.1432243,0.208331294 11.1171875,0.624999529 C12.0911507,1.04166871 12.9401005,1.61197553 13.6640625,2.33593788 C14.3880245,3.05989929 14.9583313,3.90884894 15.375,4.88281224 C15.7916687,5.85677553 16,6.89582776 16,8 C16,9.10417224 15.7916687,10.1432245 15.375,11.1171878 C14.9583313,12.0911511 14.3880245,12.9401007 13.6640625,13.6640621 C12.9401005,14.3880245 12.0911507,14.9583313 11.1171875,15.3750005 C10.1432243,15.7916687 9.10417214,16 8,16 C6.89582786,16 5.85677572,15.7916687 4.88281252,15.3750005 C3.90884932,14.9583313 3.05989948,14.3880245 2.33593751,13.6640621 C1.61197553,12.9401007 1.04166871,12.0911511 0.625,11.1171878 C0.208331294,10.1432245 0,9.10417224 0,8 C0,6.89582776 0.208331294,5.85677553 0.625,4.88281224 C1.04166871,3.90884894 1.61197553,3.05989929 2.33593751,2.33593788 C3.05989948,1.61197553 3.90884932,1.04166871 4.88281252,0.624999529 C5.85677572,0.208331294 6.89582786,0 8,0 Z M4.0355342,8.53553362 C3.75939118,8.53553419 3.53553355,8.31167656 3.53553419,8.03553361 C3.53553405,7.7593913 3.75939132,7.53553402 4.03553363,7.53553416 L12.0355341,7.5355336 C12.3116764,7.53553374 12.5355341,7.75939137 12.5355341,8.03553361 C12.5355336,8.31167663 12.3116763,8.53553391 12.035534,8.53553376 L4.0355342,8.53553362 Z" id="info-plus-black" fill="#252525"></path>
    </g>
</svg>