<?xml version="1.0" encoding="UTF-8"?>
<svg width="16px" height="16px" viewBox="0 0 16 16" version="1.1" xmlns="http://www.w3.org/2000/svg" xmlns:xlink="http://www.w3.org/1999/xlink">
    <title>16 / minus-circle-outline</title>
    <g id="16-/-minus-circle-outline" stroke="none" stroke-width="1" fill="none" fill-rule="evenodd">
        <path d="M8,0 C9.10417214,0 10.1432243,0.208331294 11.1171875,0.624999529 C12.0911507,1.04166871 12.9401005,1.61197553 13.6640625,2.33593788 C14.3880245,3.05989929 14.9583313,3.90884894 15.375,4.88281224 C15.7916687,5.85677553 16,6.89582776 16,8 C16,9.10417224 15.7916687,10.1432245 15.375,11.1171878 C14.9583313,12.0911511 14.3880245,12.9401007 13.6640625,13.6640621 C12.9401005,14.3880245 12.0911507,14.9583313 11.1171875,15.3750005 C10.1432243,15.7916687 9.10417214,16 8,16 C6.89582786,16 5.85677572,15.7916687 4.88281252,15.3750005 C3.90884932,14.9583313 3.05989948,14.3880245 2.33593751,13.6640621 C1.61197553,12.9401007 1.04166871,12.0911511 0.625,11.1171878 C0.208331294,10.1432245 0,9.10417224 0,8 C0,6.89582776 0.208331294,5.85677553 0.625,4.88281224 C1.04166871,3.90884894 1.61197553,3.05989929 2.33593751,2.33593788 C3.05989948,1.61197553 3.90884932,1.04166871 4.88281252,0.624999529 C5.85677572,0.208331294 6.89582786,0 8,0 Z M8,15.008301 C8.96875482,15.008301 9.87759991,14.823613 10.7265625,14.4542314 C11.5755251,14.0848498 12.315101,13.5828115 12.9453125,12.9480997 C13.575524,12.3133888 14.075519,11.5720355 14.4453125,10.7240201 C14.815106,9.87600375 15,8.96817181 15,8.000497 C15,7.0328222 14.815106,6.12499026 14.4453125,5.27697391 C14.075519,4.4289585 13.575524,3.69020655 12.9453125,3.06069738 C12.315101,2.43118915 11.5755251,1.93175128 10.7265625,1.56236966 C9.87759991,1.19298899 8.96875482,1.008301 8,1.008301 C7.03124518,1.008301 6.12240009,1.19298899 5.27343746,1.56236966 C4.42447492,1.93175128 3.68489901,2.43118915 3.05468753,3.06069738 C2.42447605,3.69020655 1.92448104,4.4289585 1.55468753,5.27697391 C1.18489402,6.12499026 1,7.0328222 1,8.000497 C1,8.96817181 1.18489402,9.87600375 1.55468753,10.7240201 C1.92448104,11.5720355 2.42447605,12.3133888 3.05468753,12.9480997 C3.68489901,13.5828115 4.42447492,14.0848498 5.27343746,14.4542314 C6.12240009,14.823613 7.03124518,15.008301 8,15.008301 Z M4.0355342,8.53553362 C3.75939118,8.53553419 3.53553355,8.31167656 3.53553419,8.03553361 C3.53553405,7.7593913 3.75939132,7.53553402 4.03553363,7.53553416 L12.0355341,7.5355336 C12.3116764,7.53553374 12.5355341,7.75939137 12.5355341,8.03553361 C12.5355336,8.31167663 12.3116763,8.53553391 12.035534,8.53553376 L4.0355342,8.53553362 Z" id="info-plus-black" fill="#252525"></path>
    </g>
</svg>