<?xml version="1.0" encoding="UTF-8"?>
<svg width="16px" height="16px" viewBox="0 0 16 16" version="1.1" xmlns="http://www.w3.org/2000/svg" xmlns:xlink="http://www.w3.org/1999/xlink">
    <title>16 / plus-small</title>
    <g id="16-/-plus-small" stroke="none" stroke-width="1" fill="none" fill-rule="evenodd">
        <path d="M8.7426407,8.035534 L11.2175144,10.510408 C11.4127766,10.70567 11.4127766,11.022252 11.2175144,11.217514 C11.0222523,11.412777 10.7056698,11.412777 10.5104076,11.217514 L8.0355339,8.742641 L5.5606602,11.217514 C5.365398,11.412777 5.0488155,11.412777 4.8535534,11.217514 C4.6582912,11.022252 4.6582912,10.70567 4.8535534,10.510408 L7.3284271,8.035534 L4.8535534,5.56066 C4.6582912,5.365398 4.6582912,5.048816 4.8535534,4.853553 C5.0488155,4.658291 5.365398,4.658291 5.5606602,4.853553 L8.0355339,7.328427 L10.5104076,4.853553 C10.7056698,4.658291 11.0222523,4.658291 11.2175144,4.853553 C11.4127766,5.048816 11.4127766,5.365398 11.2175144,5.56066 L8.7426407,8.035534 Z" id="info-close-black-path" fill="#252525" transform="translate(8.035534, 8.035534) rotate(-315.000000) translate(-8.035534, -8.035534) "></path>
    </g>
</svg>