<?xml version="1.0" encoding="UTF-8"?>
<svg width="16px" height="16px" viewBox="0 0 16 16" version="1.1" xmlns="http://www.w3.org/2000/svg" xmlns:xlink="http://www.w3.org/1999/xlink">
    <title>16 / plus</title>
    <g id="16-/-plus" stroke="none" stroke-width="1" fill="none" fill-rule="evenodd">
        <path d="M8.77777725,8.77777835 L8.77777692,14.2222231 C8.77777714,14.6517778 8.42955471,15.0000002 8,15 C7.5704443,15.000001 7.22222132,14.651778 7.2222222,14.2222222 L7.22222143,8.77777857 L1.7777778,8.7777778 C1.348222,8.77777868 0.99999901,8.4295557 1,8 C0.99999978,7.57044529 1.34822222,7.22222286 1.77777692,7.22222308 L7.22222165,7.22222275 L7.22222198,1.77777802 C7.22222176,1.34822332 7.57044419,1.00000088 8,1 C8.4295546,1.00000011 8.77777758,1.3482231 8.7777778,1.7777778 L8.77777747,7.22222253 L14.2222222,7.2222222 C14.6517769,7.22222242 14.9999999,7.5704454 15,8 C14.9999991,8.42955581 14.6517767,8.77777824 14.222222,8.77777802 L8.77777725,8.77777835 Z" id="info-plus-black" fill="#252525"></path>
    </g>
</svg>