<?xml version="1.0" encoding="UTF-8"?>
<svg width="16px" height="16px" viewBox="0 0 16 16" version="1.1" xmlns="http://www.w3.org/2000/svg" xmlns:xlink="http://www.w3.org/1999/xlink">
    <title>16 / print</title>
    <g id="16-/-print" stroke="none" stroke-width="1" fill="none" fill-rule="evenodd">
        <path d="M12,0 L11.3012623,1.5 L14,3 L14,15.3590287 C14,15.5819084 13.9767936,15.6627299 13.9332168,15.7442114 C13.8896401,15.8256929 13.8256929,15.8896401 13.7442114,15.9332168 C13.6627299,15.9767936 13.5819084,16 13.3590287,16 L2.6409713,16 C2.41809162,16 2.33727006,15.9767936 2.25578857,15.9332168 C2.17430709,15.8896401 2.11035995,15.8256929 2.06678318,15.7442114 C2.0232064,15.6627299 2,15.5819084 2,15.3590287 L2,0.6409713 C2,0.418091615 2.0232064,0.337270056 2.06678318,0.255788574 C2.11035995,0.174307093 2.17430709,0.110359949 2.25578857,0.0667831759 C2.33727006,0.0232064028 2.41809162,1.50463262e-17 2.6409713,-2.58960077e-17 L12,0 Z M12,13 L4,13 L4,14 L12,14 L12,13 Z M12,10 L4,10 L4,11 L12,11 L12,10 Z M12,7 L4,7 L4,8 L12,8 L12,7 Z M12,4 L4,4 L4,5 L12,5 L12,4 Z" id="Icons-/-Print" fill="#252525"></path>
    </g>
</svg>