<?xml version="1.0" encoding="UTF-8"?>
<svg width="16px" height="16px" viewBox="0 0 16 16" version="1.1" xmlns="http://www.w3.org/2000/svg" xmlns:xlink="http://www.w3.org/1999/xlink">
    <title>16 / search</title>
    <g id="16-/-search" stroke="none" stroke-width="1" fill="none" fill-rule="evenodd">
        <path d="M3,6.65 C3,4.636 4.639,2.998 6.652,2.998 C8.668,2.998 10.307,4.636 10.307,6.65 C10.307,8.666 8.668,10.304 6.652,10.304 C4.639,10.304 3,8.666 3,6.65 L3,6.65 Z M15.641,13.796 L11.469,9.595 C11.994,8.736 12.305,7.73 12.305,6.65 C12.305,3.535 9.77,1 6.652,1 C3.535,1 1,3.533 1,6.65 C1,9.767 3.535,12.304 6.652,12.304 C7.604,12.304 8.496,12.066 9.283,11.65 L13.52,15.918 L15.641,13.796 Z" id="Fill-1" fill="#252525"></path>
    </g>
</svg>