<?xml version="1.0" encoding="UTF-8"?>
<svg width="16px" height="16px" viewBox="0 0 16 16" version="1.1" xmlns="http://www.w3.org/2000/svg" xmlns:xlink="http://www.w3.org/1999/xlink">
    <title>16 / speaker</title>
    <g id="16-/-speaker" stroke="none" stroke-width="1" fill="none" fill-rule="evenodd">
        <path d="M13.4413742,2.10049584 C13.702637,1.91957544 14.0566918,1.98960914 14.233529,2.25690444 C15.3888657,4.00541254 16,5.99125707 16,8.0000571 C16,10.0088571 15.3888657,11.9943126 14.233529,13.7428207 C14.1232434,13.9097343 13.9433638,14 13.7604419,14 C13.6505366,14 13.5394904,13.9677067 13.4413742,13.8996184 C13.1801115,13.719087 13.1120386,13.356079 13.2884956,13.0895619 C14.3160531,11.5348137 14.8591145,9.7746333 14.8591145,8.0000571 C14.8591145,6.22509182 14.3160531,4.46530052 13.2884956,2.91055233 C13.1120386,2.64364611 13.1801115,2.28102716 13.4413742,2.10049584 Z M6.83651159,2.19479499 C7.21072202,1.8432925 8,1.98069196 8,2.50060882 L8,2.50060882 L8,13.3004727 C8,13.8203896 7.21104799,13.9581225 6.83651159,13.6062865 L6.83651159,13.6062865 L4.04427594,10.9830241 C3.67006551,10.6311882 2.94804801,10.343383 2.43986503,10.343383 L2.43986503,10.343383 L0.924117216,10.343383 C0.415934239,10.343383 0,9.91817837 0,9.3982615 L0,9.3982615 L0,6.40282001 C0,5.88290315 0.415934239,5.45769853 0.924117216,5.45769853 L0.924117216,5.45769853 L2.43953906,5.45769853 C2.94772204,5.45769853 3.66973955,5.16989336 4.04394997,4.81839087 L4.04394997,4.81839087 Z M11.6375583,3.97179636 C11.898821,3.79165412 12.2532561,3.86129874 12.4297131,4.12859404 C13.2081772,5.30632747 13.6196566,6.64513841 13.6196566,7.99990147 C13.6196566,9.35505361 13.2081772,10.6934755 12.4297131,11.8712089 C12.3194275,12.0381226 12.1395479,12.1283882 11.9566259,12.1283882 C11.8467206,12.1283882 11.7356744,12.0960949 11.6375583,12.0283957 C11.3766758,11.8474753 11.3082227,11.4848563 11.4846796,11.2179501 C12.1349843,10.2335875 12.4783908,9.12082978 12.4783908,7.99990147 C12.4783908,6.87897316 12.1349843,5.76621544 11.4846796,4.78224193 C11.3082227,4.51494663 11.3766758,4.15271676 11.6375583,3.97179636 Z M9.68261302,5.44514983 C9.94349549,5.26500758 10.2983109,5.33504128 10.4747678,5.6019475 C10.9562215,6.33068708 11.2106389,7.1598083 11.2106389,7.99982365 C11.2106389,8.84022808 10.9562215,9.66896022 10.4747678,10.3976998 C10.3644822,10.5646135 10.1846026,10.6548791 10.0013004,10.6548791 C9.89139506,10.6548791 9.78034887,10.6225858 9.68261302,10.5548866 C9.42135025,10.3743552 9.35289712,10.0113472 9.52935407,9.74444099 C9.8879724,9.2016798 10.0697535,8.61456393 10.0697535,7.99982365 C10.0697535,7.38508338 9.8879724,6.79835658 9.52935407,6.25559539 C9.35289712,5.9883001 9.42135025,5.62568115 9.68261302,5.44514983 Z" id="audio-icon" fill="#252525"></path>
    </g>
</svg>