<svg width="816" height="816" viewBox="0 0 816 816" fill="none" xmlns="http://www.w3.org/2000/svg">
<path fill-rule="evenodd" clip-rule="evenodd" d="M298.973 20.4172C298.973 9.28737 307.994 0.266602 319.124 0.266602C330.254 0.266602 339.275 9.28697 339.275 20.4172V161.484C339.275 172.614 330.254 181.635 319.124 181.635C307.994 181.635 298.973 172.614 298.973 161.484V20.4172ZM132.339 97.5162C135.724 93.5995 140.48 91.1411 145.631 90.6359C151.714 90.0474 157.734 92.2447 162.005 96.6197H161.999L222.458 157.078C226.39 160.808 228.651 165.959 228.734 171.376C228.823 176.792 226.724 182.016 222.916 185.865C219.104 189.719 213.906 191.875 208.49 191.849C203.074 191.823 197.897 189.62 194.126 185.735L133.667 125.276C129.922 121.703 127.698 116.828 127.453 111.661C127.203 106.495 128.953 101.428 132.339 97.5162ZM479.403 100.714C480.237 100.558 481.08 100.454 481.924 100.402C487.418 100.266 492.725 102.381 496.621 106.251C500.522 110.126 502.668 115.423 502.569 120.912C502.47 126.407 500.131 131.62 496.095 135.35L435.636 195.808C431.861 199.688 426.689 201.892 421.272 201.912C415.861 201.938 410.663 199.782 406.856 195.933C403.049 192.085 400.955 186.866 401.033 181.449C401.116 176.037 403.377 170.886 407.299 167.152V167.157L467.757 106.698C470.867 103.459 474.966 101.355 479.403 100.714ZM37 282.396C37 271.266 46.0204 262.246 57.1507 262.246H198.217C209.347 262.246 218.368 271.266 218.368 282.396C218.368 293.526 209.348 302.547 198.217 302.547H57.1507C46.0208 302.547 37 293.527 37 282.396ZM215.851 362.693C216.684 362.537 217.523 362.433 218.372 362.381C223.861 362.245 229.173 364.36 233.069 368.23C236.965 372.105 239.111 377.402 239.012 382.897C238.913 388.386 236.574 393.6 232.538 397.329L172.079 457.788C168.309 461.678 163.132 463.887 157.71 463.913C152.293 463.939 147.096 461.782 143.283 457.928C139.476 454.079 137.377 448.85 137.46 443.434C137.549 438.016 139.814 432.86 143.741 429.136L204.2 368.677C207.309 365.443 211.408 363.334 215.851 362.693ZM609.255 333.23C638.935 319.514 675.207 334.485 690.463 366.607L690.465 366.602C697.282 379.015 777.935 528.978 778.53 668.461C778.542 676.536 773.782 683.513 766.904 686.691C764.383 687.857 761.563 688.535 758.609 688.544C747.563 688.582 738.575 679.654 738.528 668.598C737.997 536.245 656.004 386.88 655.168 385.396C654.928 384.956 654.707 384.531 654.497 384.077C648.785 371.716 635.765 365.075 626.057 369.562C616.348 374.048 612.959 388.271 618.671 400.633L629.786 424.685C634.424 434.722 630.054 446.614 620.027 451.248C609.998 455.882 598.11 451.503 593.472 441.467L557.57 363.774C553.185 354.286 541.597 350.283 531.724 354.846C521.85 359.408 517.394 370.838 521.774 380.316L545.512 431.685L550.118 441.634C554.751 451.661 550.381 463.553 540.354 468.187C530.325 472.821 518.437 468.442 513.804 458.416L475.656 375.865C471.276 366.387 459.678 362.388 449.805 366.951C439.921 371.519 435.46 382.938 439.84 392.416L473.388 465.015C478.026 475.051 473.657 486.943 463.629 491.577C453.601 496.211 441.712 491.832 437.075 481.796L342.103 276.279C337.723 266.802 326.125 262.803 316.242 267.37C306.368 271.933 301.897 283.357 306.277 292.835L439.991 582.181C444.629 592.217 440.26 604.109 430.232 608.743C420.214 613.373 408.326 608.993 403.688 598.957L388.623 566.358C376.501 573.267 367.992 584.173 370.691 598.09C377.305 632.124 395.612 664.792 426.644 697.965C448.164 720.972 485.127 739.965 536.459 754.386C547.084 757.364 553.303 768.438 550.318 779.061C548.667 784.927 544.576 789.439 539.443 791.811C535.27 793.739 530.429 794.245 525.664 792.912C466.369 776.249 424.424 754.129 397.441 725.294C361.629 687.013 339.42 646.766 331.43 605.693C325.359 574.467 341.683 545.839 371.867 530.098L269.982 309.621C256.345 280.111 269.571 244.862 299.457 231.052C329.353 217.236 364.77 230.006 378.407 259.516L416.594 342.15C421.313 337.585 426.696 333.554 433.006 330.638C453.297 321.261 475.999 324.366 492.836 336.417C498.557 329.032 505.867 322.719 514.934 318.529C544.191 305.009 578.585 317.058 592.838 345.243C597.499 340.394 602.874 336.179 609.255 333.23Z" fill="#252525"/>
</svg>
