<?xml version="1.0" encoding="UTF-8"?>
<svg width="16px" height="16px" viewBox="0 0 16 16" version="1.1" xmlns="http://www.w3.org/2000/svg" xmlns:xlink="http://www.w3.org/1999/xlink">
    <title>16 / user</title>
    <defs>
        <path d="M4.66011815,15.2714665 L4.61723801,15.2517192 L4.61723801,15.2517192 C4.19176359,15.0526972 3.78677884,14.8175197 3.4061647,14.5499758 L3.43887857,14.5732469 C3.36065342,14.518865 3.28344519,14.4631225 3.20728813,14.4060538 L3.4061647,14.5499758 C3.33403725,14.4992754 3.26278498,14.4474128 3.19243506,14.3944149 L3.19231511,14.3948064 C2.82326968,14.1163054 2.47895212,13.8069353 2.16340803,13.4702198 L2.16340803,13.4702198 L2.10267808,13.4057695 C0.796929958,11.9820538 0,10.0840934 0,8 C0,3.581722 3.581722,0 8,0 C12.418278,0 16,3.581722 16,8 C16,10.1324345 15.1656713,12.0700011 13.8056427,13.5040708 C13.6830409,13.6333636 13.5557919,13.75891 13.4244738,13.880113 L13.4771418,13.831064 C13.4241928,13.8808185 13.370566,13.9298601 13.3162767,13.9781732 L13.3158672,13.9785376 C13.2276728,14.0570236 13.1373044,14.1339338 13.0452379,14.2088373 L13.1379645,14.1322371 C13.0738715,14.185995 13.0089234,14.2387665 12.9431435,14.2905285 L13.0452379,14.2088373 C12.978224,14.2633586 12.9103104,14.3168166 12.841523,14.3691858 L12.9431435,14.2905285 C12.8798873,14.3403046 12.815862,14.3891471 12.7510883,14.4370351 L12.841523,14.3691858 C12.7734531,14.4210085 12.7045275,14.471765 12.634771,14.5214302 L12.7510883,14.4370351 C12.6774219,14.4914977 12.6027875,14.5447259 12.5272156,14.5966891 L12.634771,14.5214302 C12.56706,14.5696391 12.4985662,14.6168198 12.4293123,14.6629496 L12.5272156,14.5966891 C12.4579949,14.6442852 12.3879876,14.6908201 12.3172174,14.7362703 L12.3168741,14.7364907 C12.0838308,14.8861559 11.8421459,15.0242444 11.5930047,15.1496935 L11.6425264,15.1245414 C11.5721417,15.1605988 11.5011526,15.1956439 11.4295784,15.2296574 L11.5930047,15.1496935 C11.496488,15.1982922 11.3988523,15.244994 11.3001465,15.28975 L11.4295784,15.2296574 C11.3510817,15.2669606 11.2718811,15.303023 11.1920021,15.3378193 L11.3001465,15.28975 C11.2299051,15.3215995 11.1591218,15.3524635 11.0878142,15.3823246 L11.0878528,15.3823084 C10.8981982,15.4617289 10.7048752,15.534041 10.508177,15.5989289 L10.5924801,15.5705938 C10.5136385,15.5975858 10.4342415,15.6233808 10.3543108,15.6479572 L10.508177,15.5989289 C10.4207352,15.6277747 10.3326263,15.6551534 10.2438795,15.6810357 L10.3543108,15.6479572 C10.2584258,15.677439 10.1617728,15.7051672 10.0643891,15.7311044 L10.2438795,15.6810357 C10.1634366,15.7044963 10.0824697,15.7267274 10.0010003,15.7477075 L10.0643891,15.7311044 C9.98725134,15.7516492 9.90965517,15.7710703 9.8316192,15.789349 L10.0010003,15.7477075 C9.90357277,15.7727971 9.80542678,15.7960975 9.70659943,15.8175715 L9.8316192,15.789349 C9.75377266,15.8075833 9.67548847,15.8246808 9.59678508,15.8406229 L9.59674004,15.840632 C9.46563684,15.8671883 9.33332462,15.8905457 9.19993387,15.9106096 L9.4194693,15.8744519 C9.30802622,15.8944074 9.19578294,15.912055 9.0827907,15.9273436 L9.19993387,15.9106096 C9.11900859,15.922782 9.03768634,15.9337421 8.95598621,15.943471 L9.0827907,15.9273436 C8.99516982,15.9391993 8.90709855,15.9496365 8.81860079,15.9586311 L8.95598621,15.943471 C8.85913535,15.955004 8.76175345,15.9648068 8.66387232,15.9728475 L8.81860079,15.9586311 C8.72307738,15.9683399 8.62705707,15.9763681 8.53056989,15.9826857 L8.66387232,15.9728475 C8.56658479,15.9808395 8.46880407,15.9870907 8.37056134,15.9915699 L8.37102173,15.9915489 L8.28634508,15.9949709 L8.28634508,15.9949709 L8,16 C7.87564297,16 7.75194866,15.9971626 7.62897829,15.9915487 L7.71365492,15.9949709 C7.63191144,15.9920951 7.55047997,15.987993 7.46937836,15.9826823 L7.62897829,15.9915487 C7.53102579,15.987077 7.43353262,15.9808437 7.33652975,15.9728797 L7.46937836,15.9826823 C7.37276796,15.976356 7.27662563,15.9683147 7.18098152,15.9585887 L7.33652975,15.9728797 C7.23861582,15.9648408 7.14120142,15.9550386 7.0443184,15.9435047 L7.18098152,15.9585887 C7.09250854,15.9495918 7.00446187,15.9391534 6.91686537,15.9272971 L7.0443184,15.9435047 C6.96264414,15.9337814 6.88134751,15.9228274 6.80044758,15.9106618 L6.91686537,15.9272971 C6.80392396,15.9120103 6.69173093,15.8943667 6.58033741,15.8744173 L6.58053167,15.8744433 C6.4840982,15.8571819 6.38845578,15.8382254 6.29344312,15.8175808 L6.40326136,15.8406197 C6.32443505,15.8246512 6.24602926,15.8075234 6.16806256,15.789255 L6.29344312,15.8175808 C6.19481853,15.7961514 6.09687249,15.7729031 5.9996419,15.7478729 L6.16806256,15.789255 C6.0899115,15.7709433 6.01220161,15.7514856 5.93495157,15.7309004 L5.9996419,15.7478729 C5.91812798,15.7268886 5.8371169,15.7046518 5.7566304,15.6811844 L5.93495157,15.7309004 C5.83761102,15.7049616 5.74100061,15.6772326 5.64515776,15.6477507 L5.7566304,15.6811844 C5.66790239,15.655314 5.5798119,15.6279479 5.49238804,15.5991153 L5.64515776,15.6477507 C5.56524076,15.6231677 5.48585741,15.597366 5.40702941,15.5703672 L5.40751993,15.5705938 C5.15200169,15.4830195 4.90278656,15.3831419 4.66011815,15.2714665 Z M8,8.8 C5.32236891,8.8 3.47676853,10.067585 2.46390289,12.6037236 C3.78462014,14.1901785 5.77438185,15.2 8,15.2 C10.2256182,15.2 12.2153799,14.1901785 13.5368011,12.6027551 C12.5232315,10.067585 10.6776311,8.8 8,8.8 Z M8,2.4 C6.4536027,2.4 5.2,3.6536027 5.2,5.2 C5.2,6.7463973 6.4536027,8 8,8 C9.5463973,8 10.8,6.7463973 10.8,5.2 C10.8,3.6536027 9.5463973,2.4 8,2.4 Z" id="path-1"></path>
    </defs>
    <g id="16-/-user" stroke="none" stroke-width="1" fill="none" fill-rule="evenodd">
        <g id="Icons-16x16-/-User">
            <mask id="mask-2" fill="white">
                <use xlink:href="#path-1"></use>
            </mask>
            <use id="User" fill="#252525" xlink:href="#path-1"></use>
        </g>
    </g>
</svg>