<?xml version="1.0" encoding="UTF-8"?>
<svg width="16px" height="16px" viewBox="0 0 16 16" version="1.1" xmlns="http://www.w3.org/2000/svg" xmlns:xlink="http://www.w3.org/1999/xlink">
    <title>icon-download</title>
    <g id="icon-download" stroke="none" stroke-width="1" fill="none" fill-rule="evenodd">
        <path d="M8,0.1 C10.1815248,0.1 12.1565248,0.984237619 13.5861436,2.41385643 C15.0157624,3.84347524 15.9,5.81847524 15.9,8 C15.9,10.1815248 15.0157624,12.1565248 13.5861436,13.5861436 C12.1565248,15.0157624 10.1815248,15.9 8,15.9 C5.81847524,15.9 3.84347524,15.0157624 2.41385643,13.5861436 C0.984237619,12.1565248 0.1,10.1815248 0.1,8 C0.1,5.81847524 0.984237619,3.84347524 2.41385643,2.41385643 C3.84347524,0.984237619 5.81847524,0.1 8,0.1 Z M8.06385077,3.25494504 C7.82391821,3.25494504 7.60549994,3.34759369 7.4409317,3.51338212 C7.28472429,3.67074774 7.17654688,3.89509303 7.14887667,4.17085307 L7.14887667,4.17085307 L7.14798988,9.23516943 L5.67610791,7.65351495 L5.59021655,7.57232829 C5.44038946,7.44810702 5.25853139,7.3797507 5.06478864,7.37349498 C4.84609053,7.36643347 4.61102359,7.43888963 4.39087055,7.60453913 C4.20832983,7.77616452 4.11213667,7.99276881 4.10469638,8.22666816 C4.09769793,8.44667699 4.16959297,8.68309974 4.33374236,8.90454417 L4.33374236,8.90454417 L7.39690903,12.1959645 L7.48724024,12.2808464 C7.64494795,12.4100262 7.83679108,12.4773844 8.03812428,12.4773527 C8.26630769,12.4773168 8.50796631,12.3902878 8.72446161,12.2033245 L8.72446161,12.2033245 L11.7883419,8.91086666 L11.8670559,8.813974 C11.9856467,8.64600024 12.0413061,8.44774833 12.0350024,8.25149575 C12.0274373,8.01596809 11.9306307,7.78338431 11.7465085,7.60951073 C11.5721779,7.4448838 11.3510361,7.36209834 11.1185215,7.36967917 C10.8998433,7.37680889 10.6699065,7.4643426 10.4608051,7.64390619 L10.4608051,7.64390619 L8.9778699,9.23605628 L8.97875582,4.17605064 L8.97041416,4.0511066 C8.94290305,3.84682335 8.84886719,3.66384572 8.71106281,3.52499576 C8.54543002,3.35810624 8.31658848,3.25494504 8.06385077,3.25494504 Z" id="Combined-Shape" stroke="#000000" stroke-width="0.2" fill="#FFFFFF"></path>
    </g>
</svg>